<svg xmlns="http://www.w3.org/2000/svg" xmlns:xlink="http://www.w3.org/1999/xlink" width="500" zoomAndPan="magnify" viewBox="0 0 375 374.999991" height="500" preserveAspectRatio="xMidYMid meet" version="1.0"><defs><clipPath id="6916355e04"><path d="M 26.25 32 L 315 32 L 315 291 L 26.25 291 Z M 26.25 32 " clip-rule="nonzero"/></clipPath><clipPath id="e10ed78b38"><path d="M 342 331 L 348.75 331 L 348.75 340 L 342 340 Z M 342 331 " clip-rule="nonzero"/></clipPath></defs><path fill="#8338ec" d="M 124.683594 94.796875 C 123.425781 96.230469 125.585938 98.167969 126.882812 96.707031 C 127.308594 96.226562 129.757812 95.726562 130.355469 95.980469 C 130.566406 96.066406 130.816406 96.269531 131.089844 96.492188 L 132.570312 97.699219 C 134.050781 98.933594 135.914062 96.683594 134.429688 95.457031 C 133.8125 94.953125 132.300781 93.632812 131.488281 93.292969 C 130.195312 92.75 126.027344 93.253906 124.683594 94.796875 Z M 124.683594 94.796875 " fill-opacity="1" fill-rule="nonzero"/><path fill="#8338ec" d="M 148.3125 94.601562 C 148.320312 94.554688 148.371094 94.40625 148.65625 94.015625 C 150.394531 91.65625 151.269531 91.492188 154.21875 91.558594 C 156.144531 91.691406 156.234375 88.699219 154.289062 88.644531 C 152.878906 88.628906 151.109375 88.570312 149.496094 89.34375 C 147.683594 90.234375 144.996094 93.121094 145.460938 95.171875 C 145.632812 95.9375 148.726562 96.4375 148.3125 94.601562 Z M 148.3125 94.601562 " fill-opacity="1" fill-rule="nonzero"/><path fill="#8338ec" d="M 143.886719 104.101562 C 146.242188 102.671875 146.875 98.328125 144.082031 96.070312 C 143.5625 95.65625 143.023438 95.269531 142.453125 94.925781 C 140.847656 93.90625 139.269531 96.402344 140.9375 97.410156 C 142.453125 98.355469 142.863281 98.722656 142.976562 99.714844 C 143.054688 100.40625 142.898438 101.289062 142.378906 101.605469 C 141.980469 101.839844 140.875 101.945312 140.226562 101.675781 C 139.5 99.878906 136.800781 100.988281 137.527344 102.78125 C 138.492188 105.121094 142.128906 105.160156 143.886719 104.101562 Z M 143.886719 104.101562 " fill-opacity="1" fill-rule="nonzero"/><path fill="#8338ec" d="M 122.71875 88.875 C 125.507812 87.980469 128.203125 86.519531 131.296875 87.441406 C 132.582031 84.878906 131.910156 83.707031 129.089844 83.679688 C 126.421875 83.648438 124.441406 85.019531 122.574219 86.785156 C 121.574219 87.730469 121.738281 88.242188 122.71875 88.875 Z M 122.71875 88.875 " fill-opacity="1" fill-rule="nonzero"/><path fill="#8338ec" d="M 149.429688 86.082031 C 151.003906 85.75 152.53125 84.988281 154.183594 85.710938 C 156.210938 84.589844 154.332031 83.574219 154.097656 82.511719 C 151.9375 81.6875 149.828125 81.289062 147.910156 83.109375 C 147.15625 83.820312 146.816406 84.621094 147.21875 85.601562 C 147.703125 86.777344 148.648438 86.25 149.429688 86.082031 Z M 149.429688 86.082031 " fill-opacity="1" fill-rule="nonzero"/><path fill="#8338ec" d="M 139.921875 112.574219 C 140.523438 112.820312 141.054688 113.148438 141.699219 113.304688 C 143.546875 113.757812 144.898438 113.082031 146.320312 111.8125 C 146.980469 111.222656 147.613281 110.597656 148.113281 109.867188 C 148.609375 109.140625 149.53125 107.273438 149.738281 106.429688 C 149.851562 105.957031 149.96875 104.539062 149.769531 104.125 C 148.992188 102.839844 146.859375 105.308594 146.269531 106.476562 C 145.167969 108.664062 143.328125 109.1875 141.070312 108.929688 C 139.792969 108.78125 138.851562 108.003906 137.828125 107.375 C 137.59375 107.160156 137.488281 106.902344 137.125 107.046875 C 136.609375 107.253906 136.230469 107.957031 136.601562 108.824219 C 137.285156 110.4375 138.203125 111.863281 139.921875 112.574219 Z M 139.921875 112.574219 " fill-opacity="1" fill-rule="nonzero"/><g clip-path="url(#6916355e04)"><path fill="#8338ec" d="M 31.359375 121.242188 C 29.527344 121.804688 28.574219 123.625 28.785156 125.296875 C 26.042969 126.226562 26.070312 128.742188 26.925781 131.539062 C 28.324219 136.019531 29.078125 139.207031 36 146.558594 C 36.609375 147.230469 37.4375 148.523438 40.171875 153.484375 C 40.246094 153.878906 40.339844 154.425781 40.445312 155.035156 C 40.105469 155.652344 40.117188 156.242188 40.746094 156.765625 C 46.070312 187.894531 47.308594 210.125 54.597656 224.71875 C 56.792969 229.15625 59.632812 234.058594 64.15625 236.828125 C 68.027344 239.082031 71.109375 238.910156 75.613281 233.476562 L 76.394531 244.492188 C 76.628906 246.335938 77.753906 247.878906 79.402344 248.617188 L 88.125 252.546875 L 90.679688 287.195312 C 90.890625 289.535156 93.574219 290.90625 95.457031 289.644531 C 104.636719 283.976562 123.238281 281.230469 138.425781 279.464844 C 138.578125 279.449219 138.722656 279.402344 138.859375 279.328125 C 139.964844 279.316406 175.34375 275.742188 175.929688 275.683594 C 177.484375 275.566406 178.738281 274.277344 178.839844 272.710938 C 180.65625 249.546875 171.570312 229.832031 163.355469 215.164062 C 162.113281 210.535156 162.042969 209.800781 161.582031 207.417969 C 162.5 207.507812 162.933594 207.585938 163.519531 207.585938 C 166.261719 207.585938 168.625 206.007812 169.8125 203.625 C 170.902344 205.726562 172.078125 207.824219 173.378906 210.003906 C 175.859375 214.140625 177.882812 217.3125 182.359375 219.199219 C 182.570312 222.3125 182.707031 224.367188 182.710938 224.632812 C 182.636719 226.289062 183.191406 228.664062 186.226562 230.574219 C 186.40625 230.6875 186.675781 230.757812 186.867188 230.863281 C 184.019531 245.050781 183.53125 258.003906 185.460938 270.40625 C 185.886719 272.773438 188.035156 274.4375 190.445312 274.101562 L 223.179688 270.183594 L 268.769531 262.488281 C 271.117188 262.113281 272.570312 259.703125 271.925781 257.496094 L 261.019531 219.632812 C 262.378906 218.101562 263.105469 216.484375 263.132812 214.746094 L 256.109375 176.257812 L 257.5625 177.664062 C 258.042969 179.382812 258.902344 180.878906 259.742188 182.078125 C 267.152344 193.15625 275.753906 203.058594 285.296875 211.515625 C 287.496094 213.476562 289.878906 215.503906 292.691406 216.8125 C 295.542969 218.207031 302.292969 220.140625 305.4375 219.683594 C 308.863281 219.175781 311.835938 216.4375 313.1875 212.546875 C 314.328125 209.320312 314.207031 205.917969 314.085938 202.605469 C 312.703125 173.375 312.035156 153.679688 307.679688 139.90625 C 314.128906 138.109375 314.984375 133.453125 312.996094 130.824219 C 313.019531 130.796875 313.050781 130.789062 313.074219 130.765625 C 314.820312 128.863281 314.320312 126.074219 312.402344 124.855469 C 313.519531 122.542969 312.351562 120.058594 310.039062 119.203125 C 310.03125 117.625 308.945312 115.894531 307.644531 115.105469 C 307.355469 114.9375 306.984375 114.90625 306.667969 114.785156 C 306.265625 114.617188 305.90625 114.398438 305.460938 114.300781 C 304.269531 114.25 302.75 114.023438 300.609375 114.71875 C 299.988281 114.648438 299.3125 114.605469 298.636719 114.558594 C 298.539062 112.527344 298.238281 109.03125 297.09375 107.363281 C 295.261719 104.71875 291.554688 105.042969 290.421875 107.996094 C 289.882812 109.183594 289.894531 109.992188 289.574219 114.476562 C 283.976562 114.808594 276.472656 115.875 276.488281 119.335938 C 276.523438 119.546875 276.695312 119.65625 276.78125 119.835938 C 276.550781 120.960938 276.171875 115.917969 281.179688 151.234375 C 279.429688 148.351562 275.757812 144.015625 268.285156 137.703125 C 269.679688 127.246094 267.210938 119.851562 262.445312 110.296875 C 242.03125 68.609375 239.164062 60.996094 230.773438 53.738281 C 224.378906 48.152344 214.019531 44.511719 205.292969 49.050781 C 205.265625 49.0625 204.996094 49.222656 204.972656 49.238281 C 201.601562 51.273438 201.640625 50.765625 198.183594 50.128906 C 192.246094 49.21875 185.628906 52.292969 181.277344 57.816406 C 177.199219 62.773438 175.226562 69.011719 173.484375 74.53125 C 166.394531 97.769531 168.699219 104.03125 165.917969 121.292969 C 165.722656 118.820312 163.660156 109.722656 161.199219 103.0625 C 166.613281 100.832031 168.960938 95.007812 167.777344 90.335938 C 166.753906 86.378906 163.398438 83.15625 159.582031 84.566406 C 159.539062 84.320312 159.484375 84.070312 159.433594 83.820312 C 162.402344 78.238281 160.703125 67.851562 158.144531 63.003906 C 155.539062 58.199219 150.460938 54.632812 144.0625 53.15625 C 147.542969 41.878906 136.710938 31.664062 123.617188 32.910156 C 107.039062 34.261719 99.480469 51.324219 110.519531 61.171875 C 103.207031 68.984375 99.3125 83.035156 104.1875 93.128906 C 101.605469 95.113281 100.71875 98.921875 101.847656 101.726562 C 103.941406 107.152344 109.765625 108.558594 113.832031 109.820312 C 113.097656 117.773438 112.351562 125.761719 111.570312 133.71875 C 111.546875 133.71875 111.507812 133.726562 111.3125 133.742188 L 111.3125 133.738281 C 110.726562 133.757812 105.140625 133.929688 105.726562 133.910156 C 106.023438 131.691406 105.671875 127.519531 104.285156 125.355469 C 101.832031 121.261719 96.757812 121.726562 95.683594 125.605469 C 90.3125 124.011719 87.164062 126.6875 87.203125 130.9375 C 85.25 131.527344 84.074219 133.386719 83.804688 135.457031 C 81.183594 136.371094 79.953125 138.839844 79.191406 141.519531 C 78.023438 145.210938 78.792969 146.648438 80.113281 148.199219 C 78.742188 153.820312 70.589844 175.011719 69.042969 179.054688 C 60.816406 154.382812 61.710938 156.867188 60.335938 153.238281 C 60.414062 152.921875 60.433594 152.582031 60.28125 152.265625 C 60.179688 152.054688 59.976562 151.976562 59.808594 151.84375 C 59.355469 150.65625 57.375 145.480469 56.894531 144.304688 C 56.082031 137.554688 55.96875 139.164062 55.847656 133.714844 C 55.746094 129.855469 55.738281 125.648438 52.800781 122.503906 C 50.082031 119.46875 46.96875 119.683594 46.375 119.546875 C 44.882812 116.691406 43.433594 113.195312 41.003906 110.308594 C 40.140625 109.261719 36.832031 100.824219 31.789062 103.277344 C 31.039062 103.546875 30.519531 104.003906 30.109375 104.414062 C 27.183594 107.613281 31.917969 111.644531 33.710938 116.484375 L 34.199219 117.882812 C 32.71875 118.515625 31.335938 119.640625 31.359375 121.242188 Z M 29.402344 128.179688 C 29.769531 127.964844 30.253906 127.882812 30.679688 127.988281 C 32.125 128.375 33.167969 126.410156 31.914062 125.425781 C 31.457031 125.0625 31.648438 124.027344 32.472656 124.042969 C 32.476562 124.640625 32.738281 125.214844 33.332031 125.425781 C 35.292969 126.117188 36.9375 127.457031 37.925781 129.097656 C 35.71875 129.171875 34.148438 126.234375 32.742188 127.964844 C 32.257812 128.542969 32.304688 129.398438 32.839844 129.929688 C 33.328125 130.414062 35.371094 132.285156 35.082031 132.914062 C 35.035156 133.019531 34.683594 133.191406 34.246094 133.117188 C 33.214844 132.957031 32.210938 131.921875 31.238281 130.925781 C 29.808594 129.433594 30.011719 129.679688 29.414062 129.519531 C 29.265625 128.878906 29.199219 128.347656 29.402344 128.179688 Z M 56.859375 152.300781 C 53.4375 153.988281 48.867188 156.117188 44.082031 158.984375 C 43.917969 158.019531 43.761719 157.105469 43.625 156.292969 C 47.300781 154.351562 51.242188 152.152344 55.792969 149.515625 C 56.089844 150.292969 56.5625 151.523438 56.859375 152.300781 Z M 160.632812 216.585938 C 143.113281 222.898438 122.484375 223.425781 103.753906 217.042969 L 106.910156 208.421875 C 112.375 212.546875 117.902344 212.765625 124.890625 212.765625 C 124.917969 212.765625 124.953125 212.765625 124.980469 212.765625 C 137.953125 212.566406 143.523438 213.890625 158.671875 207.707031 C 159.160156 210.296875 159.550781 212.683594 160.632812 216.585938 Z M 166.042969 226.777344 C 164.992188 227.289062 163.925781 227.761719 162.851562 228.210938 C 160.597656 220.339844 160.90625 220.246094 159.824219 219.859375 C 160.59375 219.597656 161.382812 219.382812 162.144531 219.101562 C 163.554688 221.714844 164.855469 224.273438 166.042969 226.777344 Z M 156.609375 230.421875 C 155.597656 227.523438 154.839844 224.546875 154.414062 221.527344 C 155.695312 221.191406 156.941406 220.78125 158.195312 220.390625 C 157.675781 221.144531 157.667969 220.8125 160.125 229.25 C 158.960938 229.671875 157.792969 230.078125 156.609375 230.421875 Z M 102.753906 219.78125 C 104.1875 220.273438 105.714844 220.609375 107.195312 221.027344 C 105.460938 227.074219 105.429688 228.628906 103.203125 230.859375 C 101.558594 232.515625 99.527344 233.746094 97.339844 234.574219 Z M 96.058594 238.074219 C 101.5 236.757812 105.804688 233.121094 107.347656 230.203125 C 108.078125 228.824219 108.335938 227.617188 110 221.816406 C 110.652344 221.976562 111.261719 222.207031 111.917969 222.351562 C 110.941406 229.03125 107.578125 235.449219 102.597656 240.011719 C 100.019531 242.363281 99.167969 242.320312 94.015625 243.664062 Z M 205.898438 129.394531 C 206.691406 128.894531 206.445312 128.75 207.105469 125.914062 C 210.921875 109.46875 200.308594 119.097656 191.8125 110.582031 C 186.898438 105.902344 186.589844 98.0625 186.394531 91.503906 C 186.320312 86.742188 186.082031 81.589844 187.199219 76.953125 C 189.78125 66.898438 196.085938 66.394531 199.089844 64.769531 C 201.800781 63.425781 201.351562 61.289062 205.855469 62.144531 C 217.90625 65.066406 221.351562 82.582031 224.953125 83.679688 C 227.59375 84.601562 228.960938 81.527344 231.484375 80.585938 C 234.039062 79.652344 234.9375 81.371094 235.429688 84.027344 C 236.015625 88.160156 236.410156 92.535156 233.128906 95.085938 C 231.441406 96.359375 227.75 96.746094 225.265625 102.289062 C 222.605469 106.191406 215.839844 110.742188 211.761719 113.070312 C 210.09375 114.023438 211.53125 116.5625 213.210938 115.601562 C 216.910156 113.496094 220.445312 111.046875 223.839844 108.097656 C 223.105469 115.4375 225.0625 121.277344 225.582031 130.421875 C 221.230469 136.902344 212.6875 136.984375 205.382812 134.144531 C 205.503906 132.550781 205.691406 130.972656 205.898438 129.394531 Z M 172.601562 175.9375 L 178.960938 174.769531 C 179.015625 175.308594 179.085938 175.847656 179.140625 176.386719 L 172.800781 177.164062 Z M 171.972656 172.097656 L 171.824219 171.175781 L 178.402344 169.695312 C 178.457031 170.199219 178.515625 170.699219 178.570312 171.203125 C 176.953125 171.421875 174.351562 171.777344 171.972656 172.097656 Z M 171.335938 168.195312 L 166.054688 135.914062 C 167.113281 136.570312 168.171875 137.285156 169.257812 138.074219 C 176.773438 146.347656 177.25 159.753906 178.046875 166.480469 Z M 205.238281 137.132812 C 219.667969 142.285156 229.996094 135.023438 230.203125 124.277344 C 231.171875 124.480469 232.105469 124.628906 233.03125 124.734375 C 229.75 131.472656 222.417969 148.402344 216.125 152.492188 C 215.09375 153.148438 209.898438 156.230469 207.378906 152.375 C 204.691406 148.292969 205.019531 142.175781 205.238281 137.132812 Z M 155.496094 151.0625 C 156.378906 153.574219 159.335938 163.648438 160.179688 165.984375 C 162.8125 173.738281 164.417969 184.246094 164.417969 186.800781 C 164.417969 187.945312 163.925781 188.9375 164.070312 190.507812 C 164.484375 194.527344 160.054688 202.78125 158.90625 204.46875 C 154.066406 206.5625 144.71875 209.5 139.839844 209.730469 C 134.921875 209.914062 129.433594 209.78125 124.960938 209.847656 C 118.222656 209.847656 112.84375 209.710938 107.96875 205.519531 C 108.46875 204.164062 113.125 191.433594 112.828125 192.246094 C 116.226562 180.921875 117.617188 170.277344 117.144531 159.515625 C 124.933594 173.601562 145.789062 173.203125 155.496094 151.0625 Z M 93.929688 287.160156 C 93.925781 287.160156 93.925781 287.160156 93.925781 287.160156 C 93.894531 287.160156 93.578125 286.949219 93.582031 286.949219 C 93.539062 286.351562 90.886719 249.457031 91.050781 251.761719 L 92.800781 246.984375 C 97.183594 245.875 99.792969 245.292969 101.476562 244.425781 C 106.386719 241.902344 113.25 233.171875 114.789062 222.839844 C 126.304688 225.007812 137.816406 225.296875 151.570312 222.171875 C 152.015625 225.214844 152.777344 228.21875 153.789062 231.144531 C 147.480469 232.644531 143.179688 232.878906 135.585938 232.980469 C 129.710938 233.046875 124.417969 232.988281 119.59375 231.171875 C 117.769531 230.5 116.773438 233.226562 118.566406 233.90625 C 123.808594 235.875 129.34375 235.976562 134.976562 235.902344 C 134.890625 241.160156 135.035156 246.472656 135.46875 251.730469 C 135.53125 252.492188 136.171875 253.070312 136.921875 253.070312 C 136.960938 253.070312 137.003906 253.070312 137.042969 253.0625 C 139.476562 252.855469 137.625 251.019531 137.894531 235.835938 C 139.839844 235.796875 141.8125 235.695312 143.828125 235.554688 C 144.089844 237.769531 145.492188 252.617188 144.980469 254.101562 C 144.304688 256.007812 137.25 259.605469 136.210938 260.570312 C 132.859375 263.679688 133.652344 271.550781 134.0625 276.050781 C 134.097656 276.433594 134.289062 276.761719 134.558594 277 C 119.109375 278.898438 102.855469 281.652344 93.929688 287.160156 Z M 175.933594 272.484375 C 175.933594 272.488281 175.667969 272.773438 175.667969 272.78125 C 134.8125 276.945312 138.152344 276.246094 137.566406 276.628906 C 137.269531 276.664062 136.964844 276.707031 136.667969 276.738281 C 136.867188 276.464844 137 276.140625 136.96875 275.777344 C 136.679688 272.710938 135.886719 264.847656 138.191406 262.707031 C 139.222656 261.757812 141.308594 261.339844 145.710938 257.632812 C 147.691406 255.976562 148.03125 254.90625 147.992188 252.734375 C 147.84375 246.957031 147.414062 241.097656 146.734375 235.320312 C 151.394531 234.824219 155.773438 233.902344 160.992188 232.035156 C 162.5625 236.0625 164.925781 239 167.871094 240.488281 C 169.601562 241.375 170.894531 238.742188 169.191406 237.890625 C 166.320312 236.441406 164.65625 233.421875 163.71875 231.019531 C 164.917969 230.523438 166.101562 229.992188 167.273438 229.421875 C 174.273438 244.964844 177.019531 258.660156 175.933594 272.484375 Z M 175.785156 208.34375 C 174.035156 205.40625 172.367188 202.519531 171.035156 199.535156 L 173.933594 186.785156 C 174.554688 185.929688 174.019531 185.410156 173.335938 180.421875 L 179.503906 179.703125 C 179.867188 183.613281 179.269531 174.144531 182.128906 215.78125 C 179.175781 213.980469 178.015625 212.070312 175.785156 208.34375 Z M 196.726562 233.558594 C 195.703125 238.117188 192.003906 241.101562 188.042969 243.574219 C 187.996094 243.605469 187.949219 243.628906 187.902344 243.65625 C 188.292969 239.898438 188.84375 236.0625 189.617188 232.113281 C 191.613281 232.792969 194.070312 233.234375 196.726562 233.558594 Z M 190.070312 271.214844 C 189.253906 271.277344 188.488281 270.765625 188.339844 269.925781 C 187.195312 262.578125 187.027344 254.96875 187.617188 247.039062 C 188.347656 246.757812 189.027344 246.402344 189.597656 246.042969 C 194.421875 243.023438 198.507812 239.457031 199.617188 233.902344 C 204.839844 234.28125 209.621094 234.089844 214.882812 233.664062 C 214.941406 235.28125 215.007812 236.925781 215.089844 238.589844 C 214.382812 238.40625 213.574219 237.578125 213.136719 237.019531 C 211.902344 235.511719 209.660156 237.347656 210.855469 238.84375 C 212.273438 240.617188 213.746094 241.515625 215.246094 241.558594 C 215.589844 247.113281 216.203125 252.8125 217.558594 258.347656 C 215.570312 257.726562 213.621094 256.984375 211.78125 256.019531 C 210.085938 255.128906 208.710938 257.699219 210.425781 258.605469 C 212.992188 259.941406 215.714844 260.96875 218.511719 261.695312 C 218.785156 262.589844 220.140625 266.972656 220.894531 267.523438 Z M 268.296875 259.613281 C 267.699219 259.714844 222.105469 267.410156 222.703125 267.308594 C 223.683594 266.289062 223.007812 266.042969 221.6875 262.109375 C 221.726562 262.105469 221.761719 262.105469 221.796875 262.101562 C 224.21875 261.765625 225.824219 259.703125 226.785156 258.46875 C 227.96875 256.960938 225.683594 255.152344 224.484375 256.679688 C 223.46875 257.984375 222.417969 259.316406 220.828125 259.199219 C 219.164062 253.113281 218.453125 246.71875 218.101562 240.507812 C 218.59375 240.101562 219.003906 239.652344 219.324219 239.285156 C 220.191406 238.3125 219.457031 236.617188 217.929688 236.96875 C 217.878906 235.769531 217.835938 234.589844 217.792969 233.417969 C 225.625 232.625 233.652344 231.152344 240.769531 229.210938 C 242.230469 231.519531 242.945312 232.636719 245.761719 234.242188 C 250.679688 237.019531 256.648438 238.429688 262.761719 237.851562 C 262.925781 237.835938 263.027344 237.699219 263.167969 237.632812 L 269.125 258.304688 C 269.292969 258.890625 268.890625 259.515625 268.296875 259.613281 Z M 262.394531 234.949219 C 255.296875 235.625 247.898438 232.832031 245.210938 230.316406 C 244.648438 229.792969 244.167969 229.113281 243.683594 228.375 C 248.53125 226.902344 254.503906 224.78125 258.605469 221.789062 Z M 311.171875 202.734375 C 311.28125 205.753906 311.394531 208.867188 310.4375 211.585938 C 309.457031 214.410156 307.320312 216.453125 305.003906 216.800781 C 302.578125 217.171875 296.171875 215.269531 293.945312 214.183594 C 291.472656 213.027344 289.273438 211.160156 287.234375 209.335938 C 278.089844 201.238281 269.851562 191.761719 262.683594 181.175781 C 264.597656 180.136719 263.585938 174.628906 274.113281 162.828125 C 275.417969 161.390625 276.976562 160.136719 278.640625 158.976562 C 282.722656 163.664062 286.414062 168.707031 289.660156 174.015625 C 289.570312 174.175781 289.421875 174.289062 289.394531 174.480469 C 288.164062 182.894531 287.417969 191.429688 287.171875 199.859375 C 287.148438 200.664062 287.78125 201.335938 288.589844 201.355469 C 288.601562 201.355469 288.617188 201.355469 288.628906 201.355469 C 291.390625 201.355469 288.941406 198.648438 292.167969 175.816406 C 293.929688 175.1875 292.644531 175.160156 292.574219 159.042969 C 296.792969 158.925781 304.207031 157.777344 304.050781 153.570312 L 305.007812 141.476562 C 308.5625 153.132812 309.414062 164.851562 311.171875 202.734375 Z M 282.464844 156.265625 C 283.824219 157.863281 286.640625 158.671875 289.660156 158.9375 C 289.675781 162.597656 289.734375 165.875 289.871094 168.816406 C 287.207031 164.8125 284.25 161 281.105469 157.363281 C 281.183594 157.320312 281.25 157.261719 281.328125 157.21875 C 281.339844 157.214844 281.355469 157.214844 281.367188 157.214844 C 281.824219 157.128906 282.230469 156.710938 282.464844 156.265625 Z M 299.0625 122.148438 C 299.203125 122.453125 299.25 122.800781 299.449219 123.066406 C 299.449219 123.070312 299.449219 123.070312 299.449219 123.070312 C 296.101562 125.285156 296.507812 129.515625 299.597656 130.582031 C 298.695312 132.640625 299.492188 134.734375 301.136719 135.800781 C 300.636719 136.953125 300.910156 138.472656 302.238281 139.535156 L 301.140625 153.507812 C 301.175781 154.457031 298 155.945312 292.953125 156.121094 C 287.785156 156.324219 284.546875 155.011719 284.5 153.882812 L 279.835938 121.878906 C 284.902344 123.289062 293.878906 122.925781 299.0625 122.148438 Z M 309.894531 127.011719 C 310.1875 126.984375 310.523438 127.070312 310.796875 127.285156 C 311.761719 128.058594 310.925781 129.195312 310.0625 129.195312 C 308.332031 129.195312 308.304688 131.914062 309.953125 132.097656 C 310.472656 132.160156 311.101562 132.867188 311 133.75 C 310.839844 135.894531 308.285156 136.734375 306.34375 137.226562 C 306.074219 137.1875 305.796875 137.140625 305.53125 137.257812 C 304.734375 137.632812 303.570312 137.503906 303.957031 136.75 C 305.289062 134.980469 304.460938 133.511719 303.179688 133.511719 C 302.679688 133.511719 302.132812 132.902344 302.132812 132.34375 C 302.132812 131.539062 302.820312 130.867188 303.503906 130.625 C 305.222656 129.984375 304.410156 127.449219 302.765625 127.816406 C 301.351562 128.042969 300.488281 127.976562 300.167969 127.566406 C 299.890625 127.234375 300.066406 126.410156 300.480469 125.964844 C 301.175781 125.269531 302.234375 124.882812 303.347656 124.511719 C 305.101562 123.933594 304.347656 121.308594 302.582031 121.703125 C 302.121094 121.796875 301.5 121.230469 301.425781 120.417969 C 301.410156 120.234375 301.339844 119.910156 301.257812 119.746094 C 301.257812 118.851562 301.425781 117.945312 302.175781 117.464844 C 302.695312 117.136719 304.636719 116.957031 305.894531 117.542969 C 307.046875 118.140625 307.304688 119.179688 306.996094 119.710938 C 306.355469 120.804688 307.335938 122.121094 308.515625 121.882812 C 308.972656 121.757812 309.730469 122.242188 309.878906 122.757812 C 310.03125 123.304688 309.667969 124.011719 309.136719 124.214844 C 308.4375 124.484375 308.050781 125.234375 308.25 125.960938 C 308.449219 126.683594 309.167969 127.171875 309.894531 127.011719 Z M 293.113281 109.128906 C 293.253906 108.761719 293.585938 108.496094 293.6875 108.480469 C 295.386719 108.039062 295.554688 112.898438 295.640625 114.402344 C 294.617188 114.378906 293.570312 114.371094 292.5 114.386719 L 292.734375 111.101562 C 292.789062 110.433594 292.832031 109.746094 293.113281 109.128906 Z M 279.695312 154.789062 C 278.828125 155.269531 274.222656 158.363281 271.9375 160.882812 C 264.320312 169.566406 263.277344 173.183594 261.488281 177.402344 L 255.210938 171.332031 L 254.132812 165.425781 C 253.769531 163.484375 250.925781 164.078125 251.265625 165.949219 L 260.238281 214.972656 C 259.9375 227.542969 185.023438 238.5 185.628906 224.765625 C 185.65625 224.179688 183.210938 181.847656 180.125 158.71875 C 180.089844 158.171875 179.082031 146.058594 172.601562 137.648438 C 176.40625 136.09375 201.625 129.34375 202.96875 129.289062 C 202.972656 129.296875 202.976562 129.300781 202.980469 129.304688 C 201.691406 139.4375 200.640625 157.214844 210.886719 157.214844 C 222.503906 157.214844 229.800781 137.90625 235.898438 125.503906 C 235.910156 125.484375 235.894531 125.460938 235.902344 125.441406 C 236.621094 125.902344 246.691406 126.09375 258.179688 133.738281 C 262.757812 136.992188 264.386719 138.328125 265.832031 139.4375 C 277 148.78125 279.246094 153.324219 279.695312 154.789062 Z M 163.769531 131.425781 C 162.488281 130.828125 161.0625 130.503906 159.402344 130.632812 C 159.578125 130.148438 159.75 129.664062 159.835938 129.152344 C 162.074219 129.28125 163.925781 128 164.953125 126.222656 C 164.941406 126.261719 165.074219 125.683594 163.769531 131.425781 Z M 104.558594 100.65625 C 103.695312 98.515625 104.6875 95.667969 106.554688 94.910156 C 106.648438 94.875 106.851562 94.8125 106.933594 94.753906 C 108.792969 94.375 110.835938 95.699219 112.394531 96.792969 C 113.28125 97.421875 114.703125 96.558594 114.695312 95.582031 C 114.695312 95.578125 114.695312 95.578125 114.695312 95.574219 C 114.519531 82.949219 114.152344 81.101562 114.996094 79.476562 C 117.476562 74.703125 121.257812 81.457031 127.296875 78.144531 C 129.929688 76.710938 131.539062 78.222656 136.277344 77.644531 C 150.390625 75.925781 149.386719 61.191406 155.085938 79.011719 C 154.425781 79.957031 153.53125 80.75 153.53125 82.015625 C 153.53125 82.082031 153.53125 82.222656 153.601562 82.289062 C 153.667969 82.289062 153.738281 82.222656 153.808594 82.222656 C 154.121094 81.277344 154.652344 80.476562 155.300781 79.765625 C 157.554688 87.1875 156.636719 87.570312 157.910156 88.132812 C 159.519531 88.785156 160.503906 86.144531 162.648438 87.578125 C 166.457031 89.839844 166.136719 97.945312 160.074219 100.371094 C 158.769531 100.910156 157.992188 101.136719 157.808594 102.535156 C 156.664062 111.476562 152.484375 121.675781 143.550781 122.851562 C 142.824219 122.945312 142.28125 123.566406 142.28125 124.296875 C 142.28125 135.019531 141.78125 135.476562 142.707031 136.222656 C 144 137.230469 145.753906 135.277344 150.941406 136.210938 C 152.394531 140.894531 152.707031 142.402344 154.089844 146.851562 C 151.550781 153.953125 147.933594 159.261719 143.300781 162.589844 C 137.558594 166.703125 130.003906 167.289062 124.933594 164.007812 C 116.960938 158.882812 115.960938 145.921875 113.382812 136.679688 C 115.863281 136.535156 119.203125 134.464844 120.265625 132.804688 C 120.648438 132.160156 121.011719 131.128906 121.171875 130.453125 C 121.449219 129.257812 122.742188 119.492188 122.683594 116.855469 C 124.867188 118.84375 126.832031 120.296875 128.210938 121.136719 C 129.570312 121.929688 132.679688 123.207031 133.476562 123.207031 C 135.15625 123.207031 135.492188 120.835938 133.902344 120.355469 C 127.140625 118.289062 124.359375 114.046875 121.257812 111.511719 C 117.625 105.3125 107.238281 107.605469 104.558594 100.65625 Z M 98.832031 125.714844 C 99.164062 125.402344 99.75 125.316406 100.25 125.488281 C 102.417969 126.300781 102.738281 129.519531 102.871094 131.625 C 102.980469 132.625 103.011719 133.898438 102.457031 134.722656 C 101.605469 136.257812 100.65625 134.800781 99.667969 134.339844 C 100.261719 133.082031 99.066406 132.824219 98.53125 129.457031 C 98.46875 129.054688 98.261719 128.726562 97.960938 128.507812 C 98.199219 128.242188 98.367188 127.925781 98.367188 127.558594 C 98.367188 126.632812 98.53125 126.015625 98.832031 125.714844 Z M 95.972656 128.789062 C 95.722656 129.097656 95.582031 129.488281 95.648438 129.910156 C 95.832031 131.066406 96.636719 134.46875 97.753906 135.027344 C 97.75 135.042969 97.664062 135.4375 97.660156 135.554688 C 97.628906 136.449219 97.878906 137.703125 97.300781 139.882812 C 97.027344 141.0625 96.800781 141.039062 96.21875 141.039062 C 96.222656 140.996094 96.269531 140.96875 96.269531 140.925781 C 96.316406 140.121094 95.710938 139.441406 94.910156 139.394531 C 94.539062 139.300781 93.410156 137.925781 93.132812 137.640625 C 92.460938 136.949219 92.144531 136.355469 90.417969 133.351562 C 90.316406 133.175781 90.125 133.121094 89.972656 133.007812 C 90.703125 131.769531 88.273438 126.046875 95.972656 128.789062 Z M 87.769531 133.867188 C 87.625 134.875 88.066406 134.859375 89.050781 136.824219 C 90.082031 138.609375 92.199219 141.542969 94.035156 142.136719 C 93.703125 143.3125 94.4375 143.667969 94.523438 144.878906 C 94.625 146.214844 93.425781 145.898438 92.210938 145.324219 C 91.816406 143.941406 90.117188 144.152344 86.753906 137.265625 C 86.699219 137.152344 86.570312 137.125 86.496094 137.035156 C 86.535156 136.902344 86.644531 136.800781 86.644531 136.65625 C 86.644531 135.625 86.871094 134.386719 87.769531 133.867188 Z M 84.136719 138.554688 C 85.320312 140.976562 87.832031 145.414062 90.109375 146.878906 C 90.109375 146.878906 90.109375 146.882812 90.109375 146.882812 C 90.296875 147.960938 90.199219 148.308594 90.171875 148.347656 C 90.074219 148.410156 89.738281 148.507812 89.648438 148.527344 C 86.40625 149.289062 82.949219 147.640625 81.664062 145.4375 C 81.203125 144.167969 82.355469 139.761719 84.136719 138.554688 Z M 67.601562 183.863281 C 68.023438 185.023438 69.839844 185.234375 70.339844 183.878906 C 70.578125 183.234375 81.238281 155.421875 82.621094 150.121094 C 86.160156 152.140625 92.394531 152.546875 93.0625 148.660156 C 96.15625 149.15625 97.925781 146.6875 97.3125 143.871094 C 98.457031 143.609375 99.382812 142.816406 99.859375 141.488281 C 111.414062 179.476562 75.355469 229.25 75.566406 228.664062 C 74.457031 230.503906 71.367188 234.421875 69.058594 235.210938 C 68.175781 235.449219 67.042969 235.128906 65.652344 234.328125 C 61.785156 231.960938 59.21875 227.492188 57.214844 223.425781 C 50.109375 209.203125 48.429688 185.085938 44.574219 161.914062 C 45.9375 161.644531 44.304688 161.652344 56.152344 155.886719 L 57.902344 155.039062 C 60.089844 160.859375 65.8125 178.835938 67.601562 183.863281 Z M 53.527344 140.898438 C 54.289062 145.042969 53.453125 143.347656 54.738281 146.753906 C 50.386719 149.285156 46.613281 151.402344 43.097656 153.273438 C 42.847656 151.890625 42.816406 152.449219 42.269531 151.25 C 37.804688 143.171875 39.523438 146.765625 33.425781 138.832031 C 32.5 137.679688 31.757812 136.296875 31.109375 134.769531 C 34.765625 137.5625 38.625 135.332031 37.941406 132.011719 C 40.125 131.957031 41.253906 130.503906 40.976562 129.0625 C 43.542969 130.5 46.554688 131.289062 49.621094 131.113281 C 51.574219 130.988281 51.332031 128.070312 49.449219 128.199219 C 46.292969 128.417969 43.140625 127.441406 40.230469 125.035156 C 40.246094 125.023438 40.425781 124.910156 41.125 124.878906 C 48.789062 124.480469 49.675781 126.191406 50.953125 124.976562 C 51.914062 126.214844 52.554688 127.824219 52.769531 130.007812 C 53.0625 133.601562 52.761719 137.210938 53.527344 140.898438 Z M 32.21875 106.429688 C 34.867188 103.78125 37.476562 110.582031 38.753906 112.171875 C 41.417969 115.335938 43.546875 120.914062 44.46875 121.988281 C 43.355469 121.949219 42.238281 121.914062 41.125 121.960938 C 41.128906 121.589844 40.988281 121.214844 40.703125 120.925781 C 39.746094 119.957031 38.632812 118.929688 37.363281 118.0625 C 37.269531 117.660156 37.109375 117.316406 37 117.121094 L 36.460938 115.507812 C 34.847656 111.152344 31.335938 107.402344 32.21875 106.429688 Z M 35.71875 120.449219 C 36.683594 121.105469 37.578125 121.917969 38.421875 122.773438 C 37.570312 123.449219 37.613281 123.882812 37.523438 124.464844 C 36.628906 123.785156 35.644531 123.207031 34.566406 122.796875 C 34.640625 122.136719 34.265625 121.394531 34.101562 121.339844 C 34.574219 121.160156 34.808594 120.671875 35.71875 120.449219 Z M 35.71875 120.449219 " fill-opacity="1" fill-rule="nonzero"/></g><path fill="#8338ec" d="M 75.859375 210.953125 C 75.917969 210.953125 75.972656 210.949219 76.03125 210.941406 C 76.828125 210.851562 77.402344 210.128906 77.304688 209.324219 C 76.382812 201.476562 74.394531 193.78125 71.394531 186.453125 C 70.652344 184.664062 67.972656 185.773438 68.695312 187.558594 C 71.597656 194.644531 73.519531 202.082031 74.414062 209.667969 C 74.5 210.40625 75.128906 210.953125 75.859375 210.953125 Z M 75.859375 210.953125 " fill-opacity="1" fill-rule="nonzero"/><path fill="#8338ec" d="M 205.941406 96.726562 C 207.226562 95.277344 205.003906 93.347656 203.753906 94.800781 C 203.183594 95.445312 202.191406 95.671875 201.527344 94.800781 C 201.464844 94.527344 201.386719 94.125 201.546875 93.628906 C 202.261719 93.308594 202.605469 92.472656 202.304688 91.738281 C 201.460938 89.71875 197.734375 91.230469 198.675781 95.417969 C 199.382812 98.667969 203.722656 99.257812 205.941406 96.726562 Z M 205.941406 96.726562 " fill-opacity="1" fill-rule="nonzero"/><path fill="#8338ec" d="M 211.621094 98.808594 C 212.199219 97.800781 211.230469 97.226562 210.628906 97.527344 C 209.644531 97.722656 208.617188 98.890625 207.714844 99.566406 C 204.386719 101.988281 202.507812 100.980469 198.851562 99.976562 C 200.25 102.132812 201.242188 104.527344 202.640625 106.625 L 202.699219 106.566406 C 203.28125 107.5 204.15625 108.316406 205.265625 108.550781 C 207.902344 109.054688 210.136719 104.359375 209.40625 101.433594 L 209.464844 101.433594 C 210.164062 100.558594 210.398438 99.277344 211.621094 98.808594 Z M 211.621094 98.808594 " fill-opacity="1" fill-rule="nonzero"/><path fill="#8338ec" d="M 212.242188 83.242188 C 211.136719 84.960938 211.402344 86.03125 213.34375 87.734375 C 214.953125 88.199219 216.042969 87.535156 216.9375 86.214844 C 217.816406 84.917969 217.867188 83.726562 216.839844 82.523438 C 214.554688 81.382812 213.308594 81.578125 212.242188 83.242188 Z M 212.242188 83.242188 " fill-opacity="1" fill-rule="nonzero"/><path fill="#8338ec" d="M 192.851562 85.84375 C 191.546875 86.296875 190.46875 87.042969 190.378906 88.464844 C 190.269531 90.164062 190.992188 91.5 192.777344 92.019531 C 193.652344 91.960938 194.5625 92.078125 195.347656 91.539062 C 195.722656 91.027344 196.21875 90.5625 196.4375 89.992188 C 196.808594 89.039062 198.214844 88.234375 197.082031 86.996094 C 195.933594 85.738281 194.550781 85.25 192.851562 85.84375 Z M 192.851562 85.84375 " fill-opacity="1" fill-rule="nonzero"/><path fill="#8338ec" d="M 210.226562 78.328125 C 210.90625 78.511719 211.570312 78.054688 212.183594 77.707031 C 213.976562 76.699219 214.789062 77.371094 215.558594 77.546875 C 216.492188 77.761719 217.054688 77.347656 217.003906 76.117188 C 216.949219 74.824219 216.535156 74.503906 215.71875 74.320312 C 213.53125 73.835938 209.734375 74.640625 209.335938 76.6875 C 209.203125 77.359375 209.566406 78.144531 210.226562 78.328125 Z M 210.226562 78.328125 " fill-opacity="1" fill-rule="nonzero"/><path fill="#8338ec" d="M 193.933594 82.410156 C 194.992188 82.652344 195.425781 82.070312 195.378906 80.984375 C 195.328125 79.699219 194.917969 79.367188 194.09375 79.183594 C 192.363281 78.800781 190.449219 79.101562 188.945312 79.992188 C 187.1875 81.03125 187.460938 82.875 188.605469 83.191406 C 189.28125 83.378906 189.945312 82.917969 190.5625 82.570312 C 192.351562 81.5625 193.164062 82.234375 193.933594 82.410156 Z M 193.933594 82.410156 " fill-opacity="1" fill-rule="nonzero"/><path fill="#8338ec" d="M 141.539062 228.609375 C 141.539062 225.5 137.390625 225.5 137.390625 228.609375 C 137.390625 231.71875 141.539062 231.71875 141.539062 228.609375 Z M 141.539062 228.609375 " fill-opacity="1" fill-rule="nonzero"/><path fill="#8338ec" d="M 278.613281 89.898438 C 288.8125 83.332031 299.953125 78.449219 311.710938 75.390625 C 313.550781 74.910156 312.890625 72.128906 310.984375 72.566406 C 298.914062 75.707031 287.492188 80.710938 277.027344 87.449219 C 275.40625 88.492188 276.996094 90.949219 278.613281 89.898438 Z M 278.613281 89.898438 " fill-opacity="1" fill-rule="nonzero"/><path fill="#8338ec" d="M 283.015625 42.167969 C 270.832031 45.582031 259.652344 52.8125 251.542969 62.515625 C 250.296875 63.996094 252.5625 65.863281 253.777344 64.382812 C 261.515625 55.121094 272.175781 48.230469 283.800781 44.980469 C 285.636719 44.453125 284.90625 41.691406 283.015625 42.167969 Z M 283.015625 42.167969 " fill-opacity="1" fill-rule="nonzero"/><path fill="#8338ec" d="M 219.570312 2.496094 C 213.027344 11.164062 208.375 21.363281 206.113281 31.984375 C 205.703125 33.867188 208.570312 34.476562 208.960938 32.585938 C 211.136719 22.382812 215.613281 12.585938 221.894531 4.25 C 223.066406 2.707031 220.710938 0.949219 219.570312 2.496094 Z M 219.570312 2.496094 " fill-opacity="1" fill-rule="nonzero"/><path fill="#8338ec" d="M 156.714844 13.058594 C 162.402344 21.773438 165.121094 32.09375 167.738281 42.070312 C 168.242188 43.9375 171.054688 43.191406 170.5625 41.328125 C 167.875 31.125 165.101562 20.578125 159.152344 11.464844 C 158.089844 9.84375 155.65625 11.457031 156.714844 13.058594 Z M 156.714844 13.058594 " fill-opacity="1" fill-rule="nonzero"/><path fill="#8338ec" d="M 56.320312 71.34375 C 54.488281 71.925781 55.359375 74.703125 57.207031 74.121094 C 69.402344 70.203125 77.21875 76.300781 86.390625 86.183594 C 87.683594 87.578125 89.851562 85.617188 88.53125 84.203125 C 78.765625 73.671875 69.910156 67.003906 56.320312 71.34375 Z M 56.320312 71.34375 " fill-opacity="1" fill-rule="nonzero"/><path fill="#8338ec" d="M 60.398438 357.738281 C 56.808594 348.597656 53.933594 339.191406 50.949219 329.8125 C 49.929688 326.421875 48.8125 323.148438 47.554688 320 C 46.496094 317.6875 44.953125 315.578125 43.082031 316.046875 C 42.457031 316.199219 41.898438 316.605469 41.535156 317.316406 C 40.59375 318.882812 40.824219 321.492188 42.128906 323.121094 C 43.347656 327.789062 44.753906 332.5 46.199219 337.113281 C 48.425781 344.640625 56.28125 369.773438 61.867188 373.628906 C 62.792969 374.199219 63.746094 374.402344 64.652344 374.183594 C 67.316406 373.515625 67.921875 369.636719 68.269531 366.179688 C 68.742188 361.53125 68.695312 356.75 68.519531 351.910156 C 68.257812 345.757812 66.398438 318.609375 64.890625 312.496094 C 64.433594 310.660156 62.699219 309.492188 61.566406 309.777344 C 60.488281 310.039062 59.664062 311.3125 59.867188 313.125 C 60.738281 322.941406 61.773438 332.714844 62.394531 342.503906 C 62.847656 349.414062 63.183594 356.34375 62.5 362.816406 C 61.722656 361.144531 61.0625 359.441406 60.398438 357.738281 Z M 60.398438 357.738281 " fill-opacity="1" fill-rule="nonzero"/><path fill="#8338ec" d="M 95.21875 364.871094 C 96.988281 363.625 96.921875 359.851562 95.050781 358.042969 C 94.039062 357.195312 93.429688 357.148438 92.460938 357.347656 C 91.371094 357.570312 89.976562 358.035156 89.476562 358.230469 C 88.765625 355.648438 86.777344 342.066406 86.277344 339.355469 C 85.6875 335.695312 82.484375 317.972656 81.273438 314.433594 C 82.363281 314.210938 83.621094 313.949219 84.25 312.675781 C 85.5 310.265625 84.097656 305.597656 80.738281 305.835938 C 79.582031 305.71875 74.21875 306.921875 73.136719 307.144531 C 72.5 306.660156 71.871094 306.523438 71.296875 306.644531 C 70.328125 306.847656 69.476562 307.902344 69.121094 309.382812 C 68.53125 311.707031 69.679688 314.371094 71.457031 315.144531 C 72.175781 315.4375 75.023438 315.375 75.726562 315.316406 C 76.121094 318.933594 79.257812 338.34375 79.9375 341.902344 C 80.507812 345.210938 81.191406 348.503906 81.875 351.792969 C 82.453125 354.578125 83.222656 357.410156 84.355469 359.988281 C 83.359375 360.371094 82.421875 360.742188 81.503906 361.195312 C 80.96875 361.480469 80.632812 362.171875 80.371094 362.929688 C 79.828125 364.625 80.644531 366.828125 82.011719 367.957031 C 82.515625 368.378906 83.183594 368.417969 83.769531 368.382812 C 84.722656 368.363281 89.28125 367.332031 90.160156 366.972656 C 91.902344 366.4375 93.640625 365.902344 95.21875 364.871094 Z M 95.21875 364.871094 " fill-opacity="1" fill-rule="nonzero"/><path fill="#8338ec" d="M 125.917969 349.765625 C 126.539062 347.558594 126.636719 344.738281 126.097656 342.292969 C 124.929688 337.339844 121.6875 334.054688 118.402344 332.535156 C 115.390625 331.222656 112.148438 331.347656 109.203125 332.128906 C 112.164062 326.359375 116.148438 317.613281 115.222656 309.640625 C 114.90625 306.457031 113.476562 303.03125 111.578125 301.003906 C 109.234375 298.789062 106.914062 298.054688 104.273438 298.515625 C 100.820312 299.121094 94.460938 304.085938 93.527344 308.535156 C 93.328125 309.445312 93.605469 310.710938 94 311.605469 C 94.03125 311.769531 94.335938 312.15625 94.363281 312.328125 C 94.800781 318.546875 95.183594 324.78125 95.734375 330.984375 C 96.203125 337.027344 96.785156 343.050781 97.949219 349.054688 C 98.558594 352.1875 99.3125 355.46875 100.734375 358.195312 C 100.070312 360.496094 101.238281 363.441406 103.140625 363.8125 C 104.25 364.054688 109.238281 363.445312 110.332031 363.253906 C 115.90625 362.277344 123.847656 357.5625 125.917969 349.765625 Z M 101.796875 331.410156 C 101.394531 327.105469 101.039062 322.703125 100.570312 318.324219 C 100.355469 315.738281 100.023438 313.167969 99.535156 310.722656 C 101.09375 309.136719 103.769531 307.179688 105.78125 306.824219 C 106.816406 306.648438 108.390625 306.808594 109.128906 308.339844 C 109.539062 309.320312 109.558594 310.453125 109.496094 311.425781 C 108.992188 317.726562 104.414062 326.40625 101.796875 331.410156 Z M 105.125 354.1875 C 104.273438 350.660156 103.726562 347.167969 103.214844 343.585938 C 105.992188 341.527344 108.890625 340.140625 112.109375 339.578125 C 114.125 339.230469 116.210938 339.300781 118.128906 340.457031 C 119.125 341.066406 120.292969 342 120.679688 343.507812 C 121 344.675781 120.644531 346.046875 120.152344 346.925781 C 118.585938 350.171875 115.132812 352.792969 112.492188 353.953125 C 110.355469 354.9375 108.070312 355.421875 105.757812 355.742188 C 105.496094 355.261719 105.292969 354.773438 105.125 354.1875 Z M 105.125 354.1875 " fill-opacity="1" fill-rule="nonzero"/><path fill="#8338ec" d="M 128.464844 331.65625 C 129.144531 336.695312 129.773438 341.828125 131.1875 346.667969 C 133.472656 354.609375 137.121094 357.382812 142.492188 356.59375 C 145.492188 356.15625 149.15625 354.578125 151.777344 352.710938 C 152.679688 352.054688 157.601562 348.199219 158.425781 347.386719 C 160.136719 345.742188 159.605469 341.726562 157.441406 340.648438 C 157.128906 340.523438 156.828125 340.476562 156.484375 340.53125 C 156.019531 340.597656 155.632812 340.746094 155.25 340.972656 C 152.390625 342.785156 149.429688 344.351562 146.382812 345.667969 C 144.445312 346.558594 142.417969 347.203125 140.300781 347.253906 C 139.769531 347.242188 139.0625 347.261719 138.613281 346.628906 C 137.96875 345.855469 137.667969 344.589844 137.332031 343.507812 C 136.382812 339.816406 135.835938 336.0625 135.34375 332.304688 C 136.679688 331.765625 142.171875 329.390625 143.222656 328.101562 C 144.136719 327.101562 144.136719 324.664062 143.382812 323.121094 C 142.691406 321.648438 141.398438 320.882812 140.339844 321.300781 C 138.371094 321.933594 136.375 322.839844 134.457031 323.8125 C 134.304688 321.574219 133.347656 306.128906 134.460938 305.703125 C 134.890625 305.378906 137.078125 305.40625 137.605469 305.417969 C 139.851562 305.4375 142.140625 305.363281 144.394531 305.03125 C 145.316406 304.902344 146.226562 304.679688 147.140625 304.457031 C 149.355469 303.871094 149.507812 299.671875 147.464844 297.792969 C 147.394531 297.714844 146.953125 297.519531 146.882812 297.441406 C 145.363281 295.925781 143.453125 295.765625 141.671875 295.679688 C 138.925781 295.46875 136.136719 295.355469 133.425781 295.753906 C 128.28125 296.507812 127.171875 303.027344 127.148438 309.734375 C 127.070312 315.664062 127.367188 321.71875 128.007812 327.722656 C 128.03125 327.890625 127.988281 327.984375 127.941406 328.078125 C 127.714844 329.332031 127.875 330.4375 128.464844 331.65625 Z M 128.464844 331.65625 " fill-opacity="1" fill-rule="nonzero"/><path fill="#8338ec" d="M 188.875 297.878906 C 189.0625 297.941406 189.601562 298.054688 189.75 298.292969 C 190.136719 299.121094 190.578125 302.367188 190.683594 303.304688 C 190.90625 305.710938 190.894531 308.140625 190.882812 310.574219 C 190.925781 311.433594 191.253906 312.265625 191.636719 313 C 192.238281 314.144531 193.234375 314.632812 194.164062 314.523438 C 197.648438 314.121094 197.292969 305.488281 196.851562 301.71875 C 196.601562 299.058594 196.09375 296.253906 195.0625 293.941406 C 193.453125 290.230469 190.292969 288.339844 187.507812 288.664062 C 177.820312 289.796875 174.785156 309.671875 174.6875 321.484375 C 174.691406 325.5625 174.824219 329.707031 175.40625 333.71875 C 176.792969 343.105469 180.71875 351.582031 187.917969 350.742188 C 190.355469 350.460938 192.84375 349.128906 194.78125 347.078125 C 197.730469 344.132812 202.992188 337.789062 204.949219 333.398438 C 206.214844 330.648438 204.570312 327.113281 202.367188 327.367188 C 201.496094 327.46875 201.050781 328.214844 200.527344 329.230469 C 198.214844 333.144531 191.539062 341.46875 187.769531 341.90625 C 184.75 342.261719 183.191406 338.976562 182.386719 335.074219 C 181.519531 330.664062 181.257812 325.921875 181.378906 321.394531 C 181.542969 314.695312 182.621094 301.726562 187.164062 298.335938 C 187.65625 298.019531 188.277344 297.769531 188.875 297.878906 Z M 188.875 297.878906 " fill-opacity="1" fill-rule="nonzero"/><path fill="#8338ec" d="M 234.875 338.753906 C 235.375 341.382812 236.007812 344.179688 237.179688 346.480469 C 237.625 347.390625 238.742188 347.96875 239.433594 347.898438 C 240.886719 347.75 241.988281 345.824219 241.640625 343.519531 C 241.542969 343.183594 241.453125 342.847656 241.347656 342.425781 C 240.945312 340.128906 239.6875 327.617188 239.453125 325.304688 C 238.382812 315.28125 237.726562 305.3125 236.609375 295.378906 C 236.269531 291.949219 235.558594 284.921875 232.246094 285.257812 C 230.238281 285.46875 229.785156 288.214844 230.238281 290.394531 C 230.511719 291.925781 230.601562 293.390625 230.699219 294.941406 C 231.097656 301.824219 231.554688 308.703125 232.140625 315.652344 C 231.492188 315.636719 228.171875 316.488281 227.542969 316.636719 C 223.933594 317.519531 220.339844 318.582031 216.738281 319.546875 C 216.277344 314.398438 215.949219 309.324219 215.542969 304.171875 C 215.316406 301.339844 215.042969 298.597656 214.636719 295.78125 C 213.339844 284.949219 208.167969 287.617188 208.113281 291.597656 C 208.117188 292.804688 208.25 294.089844 208.316406 295.382812 C 209.027344 303.621094 209.445312 311.804688 210.207031 319.945312 C 209.691406 319.480469 209.148438 319.367188 208.6875 319.410156 C 207.753906 319.503906 206.960938 320.363281 206.683594 321.691406 C 206.347656 323.023438 206.832031 324.878906 207.472656 326.023438 C 207.964844 326.84375 208.675781 327.464844 209.335938 327.652344 C 209.585938 327.800781 210.890625 327.933594 211.125 327.910156 C 211.613281 331.582031 213.664062 345.570312 215.058594 347.769531 C 215.710938 348.914062 216.507812 349.265625 217.257812 349.1875 C 218.652344 349.050781 219.828125 347.285156 219.519531 344.804688 C 218.699219 339.003906 218.105469 333.085938 217.457031 327.265625 C 222.652344 326.394531 227.816406 325.179688 232.863281 323.460938 C 233.382812 328.605469 233.960938 333.734375 234.875 338.753906 Z M 234.875 338.753906 " fill-opacity="1" fill-rule="nonzero"/><path fill="#8338ec" d="M 245.089844 317.6875 C 245.484375 322.75 245.832031 327.910156 246.96875 332.824219 C 248.804688 340.871094 252.292969 343.851562 257.707031 343.371094 C 260.734375 343.097656 264.484375 341.730469 267.203125 340.015625 C 268.148438 339.417969 273.289062 335.847656 274.152344 335.078125 C 275.953125 333.535156 275.652344 329.496094 273.550781 328.300781 C 273.242188 328.160156 272.945312 328.097656 272.597656 328.125 C 272.132812 328.171875 271.730469 328.289062 271.339844 328.5 C 268.378906 330.148438 265.332031 331.535156 262.210938 332.679688 C 260.226562 333.460938 258.160156 333.992188 256.042969 333.917969 C 255.511719 333.878906 254.804688 333.855469 254.394531 333.199219 C 253.792969 332.390625 253.566406 331.117188 253.292969 330.011719 C 252.546875 326.273438 252.210938 322.5 251.929688 318.722656 C 253.296875 318.253906 258.917969 316.199219 260.039062 314.976562 C 261.015625 314.023438 261.152344 311.59375 260.480469 310.007812 C 259.875 308.503906 258.628906 307.664062 257.546875 308.023438 C 255.542969 308.546875 253.496094 309.332031 251.519531 310.195312 C 251.496094 307.953125 251.40625 292.484375 252.550781 292.121094 C 252.988281 291.824219 255.175781 291.972656 255.707031 292.011719 C 257.949219 292.160156 260.238281 292.21875 262.511719 292.019531 C 263.441406 291.933594 264.367188 291.765625 265.292969 291.597656 C 267.535156 291.140625 267.929688 286.957031 265.984375 284.960938 C 265.921875 284.882812 265.492188 284.660156 265.429688 284.582031 C 263.992188 282.980469 262.089844 282.71875 260.3125 282.53125 C 257.585938 282.164062 254.804688 281.890625 252.066406 282.136719 C 246.890625 282.59375 245.410156 289.039062 245.011719 295.730469 C 244.601562 301.648438 244.554688 307.703125 244.855469 313.726562 C 244.875 313.898438 244.824219 313.988281 244.773438 314.082031 C 244.46875 315.316406 244.570312 316.433594 245.089844 317.6875 Z M 245.089844 317.6875 " fill-opacity="1" fill-rule="nonzero"/><path fill="#8338ec" d="M 294.152344 303.265625 C 294.71875 304.429688 295.699219 304.957031 296.625 304.878906 C 300.117188 304.597656 300.066406 295.960938 299.757812 292.175781 C 299.605469 289.511719 299.199219 286.691406 298.25 284.351562 C 296.773438 280.582031 293.679688 278.582031 290.886719 278.8125 C 281.167969 279.597656 277.433594 299.347656 276.921875 311.140625 C 276.785156 315.21875 276.765625 319.367188 277.210938 323.394531 C 278.265625 332.816406 281.890625 341.429688 289.109375 340.84375 C 291.550781 340.644531 294.085938 339.402344 296.097656 337.425781 C 299.144531 334.582031 304.621094 328.433594 306.734375 324.117188 C 308.097656 321.410156 306.574219 317.816406 304.367188 317.992188 C 303.496094 318.066406 303.019531 318.796875 302.457031 319.792969 C 300.015625 323.621094 293.054688 331.707031 289.273438 332.007812 C 286.242188 332.261719 284.800781 328.917969 284.136719 324.992188 C 283.425781 320.554688 283.332031 315.8125 283.613281 311.296875 C 284.011719 304.605469 285.542969 291.6875 290.203125 288.457031 C 290.707031 288.164062 291.328125 287.933594 291.925781 288.058594 C 292.109375 288.132812 292.644531 288.257812 292.789062 288.511719 C 293.144531 289.347656 293.464844 292.605469 293.542969 293.550781 C 293.679688 295.960938 293.585938 298.386719 293.488281 300.8125 C 293.5 301.675781 293.800781 302.515625 294.152344 303.265625 Z M 294.152344 303.265625 " fill-opacity="1" fill-rule="nonzero"/><path fill="#8338ec" d="M 332.6875 331.253906 C 333.703125 331.523438 334.773438 331.703125 335.78125 331.882812 C 336.253906 331.933594 336.703125 331.730469 337.089844 331.441406 C 338.640625 330.203125 338.808594 326.992188 337.386719 325.199219 C 335.683594 322.730469 321.011719 317.519531 318.433594 316.679688 C 318.320312 316.683594 318.257812 315.824219 318.359375 315.640625 C 322.742188 307.707031 327.117188 299.691406 330.738281 290.949219 C 331.589844 288.984375 332.367188 286.933594 332.675781 284.75 C 333.058594 282.039062 331.601562 279.726562 329.972656 279.851562 C 328.804688 279.9375 328.234375 280.933594 327.761719 282.4375 C 327.324219 283.59375 326.820312 284.757812 326.324219 285.917969 C 325.273438 288.242188 318.808594 300.480469 317.625 302.644531 L 317.617188 302.558594 C 317.375 298.515625 316.691406 283.875 315.203125 280.355469 C 314.558594 278.84375 313.382812 277.894531 312.277344 277.980469 C 310.996094 278.078125 310.429688 279.152344 309.90625 280.753906 C 309.589844 281.984375 309.582031 283.453125 309.558594 284.75 C 309.523438 285.878906 309.964844 287.058594 310.542969 287.792969 C 310.996094 296.140625 311.269531 304.507812 311.660156 312.949219 C 310.824219 314.308594 309.871094 315.675781 309.660156 317.503906 C 309.386719 320.117188 310.515625 322.714844 312.277344 323.535156 C 312.644531 328.519531 312.988281 333.855469 314.609375 338.398438 C 315.277344 340.25 316.660156 341.53125 317.9375 341.433594 C 318.347656 341.40625 318.796875 341.195312 319.179688 340.824219 C 320.488281 339.515625 320.820312 336.894531 319.742188 334.988281 C 319.742188 334.988281 319.546875 334.742188 319.542969 334.65625 C 319.082031 331.667969 318.972656 328.648438 318.808594 325.636719 C 320.003906 325.976562 321.269531 326.40625 322.476562 326.917969 C 323.867188 327.503906 331.257812 330.925781 332.6875 331.253906 Z M 332.6875 331.253906 " fill-opacity="1" fill-rule="nonzero"/><path fill="#8338ec" d="M 346.242188 315.355469 C 346.292969 315.269531 346.316406 314.746094 346.308594 314.660156 C 345.722656 306.324219 345.488281 298.050781 345.085938 289.785156 C 344.976562 287.460938 344.8125 285.054688 344.761719 282.722656 C 344.703125 280.222656 343.320312 278.851562 341.976562 278.941406 C 341.105469 279.003906 340.273438 279.671875 339.773438 280.914062 C 339.078125 282.691406 339.203125 290.28125 339.238281 292.441406 C 339.28125 298.054688 339.566406 303.734375 340.195312 309.304688 C 340.320312 310.25 340.992188 314.867188 341.230469 315.710938 C 341.707031 317.578125 342.832031 318.535156 343.941406 318.460938 C 345.046875 318.382812 346.082031 317.269531 346.242188 315.355469 Z M 346.242188 315.355469 " fill-opacity="1" fill-rule="nonzero"/><g clip-path="url(#e10ed78b38)"><path fill="#8338ec" d="M 345.300781 339.441406 C 346.292969 339.375 347.347656 338.519531 347.820312 336.929688 C 348.480469 334.726562 347.253906 332.304688 345.632812 331.644531 C 344.597656 331.109375 343.21875 332.328125 342.726562 333.660156 C 342.324219 334.640625 342.242188 335.9375 342.613281 337.039062 C 343.199219 338.722656 344.25 339.515625 345.300781 339.441406 Z M 345.300781 339.441406 " fill-opacity="1" fill-rule="nonzero"/></g><path fill="#8338ec" d="M 134.085938 185.523438 C 131.121094 185.804688 128.125 185.953125 125.179688 185.972656 C 123.261719 185.988281 123.265625 188.890625 125.191406 188.890625 C 127.511719 188.890625 131.035156 188.738281 134.359375 188.429688 C 136.292969 188.25 135.984375 185.316406 134.085938 185.523438 Z M 134.085938 185.523438 " fill-opacity="1" fill-rule="nonzero"/><path fill="#8338ec" d="M 139.671875 188.355469 L 135.253906 188.769531 C 133.425781 188.941406 133.539062 191.679688 135.390625 191.679688 C 135.976562 191.628906 140.53125 191.207031 139.945312 191.257812 C 141.972656 191.070312 141.460938 188.035156 139.671875 188.355469 Z M 139.671875 188.355469 " fill-opacity="1" fill-rule="nonzero"/><path fill="#8338ec" d="M 138.160156 193.492188 C 134.867188 193.894531 131.609375 193.726562 132.195312 193.726562 C 130.308594 193.726562 130.242188 196.5625 132.132812 196.640625 C 134.285156 196.734375 136.441406 196.636719 138.511719 196.386719 C 140.363281 196.160156 140.160156 193.320312 138.160156 193.492188 Z M 138.160156 193.492188 " fill-opacity="1" fill-rule="nonzero"/><path fill="#8338ec" d="M 148.644531 191.574219 C 149.238281 191.5 150.007812 191.476562 151.84375 191.082031 C 153.71875 190.691406 153.128906 187.828125 151.230469 188.234375 C 150.328125 188.429688 149.410156 188.570312 148.5 188.664062 C 146.664062 188.84375 146.804688 191.574219 148.644531 191.574219 Z M 148.644531 191.574219 " fill-opacity="1" fill-rule="nonzero"/><path fill="#8338ec" d="M 230.632812 167.683594 C 229.171875 165.734375 227.71875 164.109375 224.800781 164.476562 C 224.101562 164.59375 222.503906 165.222656 222.292969 165.644531 C 221.359375 165.292969 220.542969 165.292969 220.019531 165.234375 C 216.566406 165.078125 213.660156 164.976562 211.390625 167.625 C 208.84375 165.847656 204.621094 167.03125 203.515625 170.132812 C 200.335938 166.316406 194.007812 168.457031 194.007812 174.15625 C 194.007812 174.359375 194.808594 182.277344 194.828125 182.496094 C 193.035156 184.683594 193.238281 188.78125 196.050781 191.242188 C 197.101562 196.785156 197.859375 197.835938 198.035156 198.066406 C 200.066406 201.34375 204.789062 201.96875 207.421875 197.601562 C 209.527344 200.480469 213.828125 200.695312 215.996094 197.65625 C 216.054688 197.542969 216.171875 197.425781 216.171875 197.308594 C 219.230469 198.453125 223.058594 197.3125 225.734375 195.558594 C 225.792969 195.558594 225.851562 195.5 225.910156 195.441406 C 228.6875 198.804688 234.582031 198.578125 236 191.769531 C 238.9375 178.429688 242.785156 171.222656 240.664062 166.984375 C 238.574219 162.566406 232.160156 162.6875 230.632812 167.683594 Z M 210.910156 194.957031 C 209.804688 193.042969 209.21875 188.371094 208.914062 186.054688 C 206.847656 186.792969 204.71875 187.335938 202.578125 187.757812 C 202.894531 190.019531 203.191406 192.308594 203.585938 194.5625 C 203.820312 196.101562 202.472656 196.914062 201.765625 195.78125 C 201.167969 194.945312 200.191406 189.523438 199.957031 188.097656 C 199.257812 188.179688 198.753906 187.890625 198.429688 187.421875 C 197.417969 185.808594 198.523438 184.210938 199.507812 185.011719 C 199.113281 181.851562 198.875 178.660156 198.511719 175.460938 C 198.421875 174.484375 198.066406 172.777344 199.375 172.609375 C 201.472656 172.339844 201.542969 179.222656 202.207031 184.761719 C 202.953125 184.546875 207.960938 183.023438 208.542969 183.023438 C 207.941406 177.625 207.792969 174.425781 207.535156 173.207031 C 207.320312 172.351562 207.515625 171.28125 208.324219 171.171875 C 209.691406 170.996094 210.042969 173.722656 210.21875 175.058594 C 210.707031 178.480469 212.164062 191.898438 212.726562 193.742188 C 212.890625 194.632812 211.492188 196.050781 210.910156 194.957031 Z M 226.136719 189.832031 C 225.789062 190.144531 223.714844 191.636719 223.328125 191.886719 C 222.230469 192.605469 220.699219 193.214844 219.449219 193.371094 C 214.984375 193.964844 214.445312 188.417969 213.886719 183.609375 C 213.449219 182.738281 213.75 182.1875 213.726562 182.074219 C 213.523438 179.734375 213.460938 177.371094 213.546875 175.0625 C 213.710938 169.582031 215.367188 169.3125 219.695312 169.617188 C 221.550781 169.730469 221.441406 170.15625 222.078125 170.464844 C 222.90625 171.207031 222.804688 172.839844 221.882812 173.058594 C 219.179688 173.664062 216.996094 173.25 216.613281 173.507812 C 216.148438 173.671875 216.398438 179.691406 216.4375 180.570312 C 217.246094 180.1875 218.078125 179.851562 218.898438 179.609375 C 220.066406 179.1875 220.820312 181.484375 220.027344 182.265625 C 219.582031 182.761719 217.28125 183.671875 216.722656 183.882812 C 216.84375 184.910156 217.269531 188.691406 217.941406 189.476562 C 218.738281 190.550781 223.496094 188.128906 224.882812 187.320312 C 225.164062 187.167969 225.503906 187.074219 225.796875 187.203125 C 226.683594 187.625 226.859375 189.191406 226.136719 189.832031 Z M 231.71875 190.828125 C 231.554688 191.625 231.109375 193.070312 230.414062 193.160156 C 227.027344 193.628906 230.390625 183.699219 231.359375 180.386719 C 228.820312 177.945312 227.035156 175.132812 225.214844 171.816406 C 223.871094 170.617188 224.714844 168.105469 226.070312 168.996094 C 226.304688 169.195312 230.34375 174.558594 230.589844 174.867188 C 230.789062 175.113281 232.167969 176.691406 232.378906 176.964844 C 232.464844 176.695312 234.730469 169.628906 234.777344 169.351562 C 234.855469 167.390625 237.179688 168.007812 236.941406 170.015625 C 236.871094 171.171875 232.976562 185.023438 231.71875 190.828125 Z M 231.71875 190.828125 " fill-opacity="1" fill-rule="nonzero"/></svg>